<?xml version="1.0" encoding="UTF-8"?>
<svg width="24px" height="24px" viewBox="0 0 24 24" version="1.1" xmlns="http://www.w3.org/2000/svg" xmlns:xlink="http://www.w3.org/1999/xlink">
    <title>dashboard-icon</title>
    <g id="Wireframes" stroke="none" stroke-width="1" fill="none" fill-rule="evenodd">
        <g id="Dashboard" transform="translate(-28.000000, -188.000000)" fill="#FFFFFF" fill-rule="nonzero" stroke="#FFFFFF">
            <g id="Dashboard-Active" transform="translate(0.000000, 160.000000)">
                <path d="M40,28.5 C40.388329,28.5 40.7766132,28.6269242 41.1005391,28.8812274 L41.1005391,28.8812274 L50.8284748,36.4847385 C51.2542682,36.8193952 51.5,37.3180454 51.5,37.8562332 L51.5,37.8562332 L51.5,49.9124585 C51.5,50.3592812 51.3154856,50.7521405 51.0075976,51.0329934 C50.6830814,51.3290145 50.2272581,51.5 49.7115104,51.5 L49.7115104,51.5 L45.0490529,51.5 C44.4869861,51.5 44.0101277,51.3576543 43.6786295,51.0843153 C43.3832725,50.8407768 43.2178242,50.4920989 43.2178242,50.0777702 L43.2178242,50.0777702 L43.2178242,42.773297 C43.2178242,42.4486464 43.0706444,42.1241961 42.8276861,41.8849926 C42.5882312,41.6492385 42.2639556,41.5044051 41.9368626,41.5044051 L41.9368626,41.5044051 L38.0553667,41.5044051 C37.7343682,41.5044051 37.4081339,41.6517122 37.1668261,41.8952778 C36.9283321,42.1360033 36.7821758,42.4611174 36.7821758,42.7848304 L36.7821758,42.7848304 L36.7822212,50.0671887 C36.7765866,50.4853362 36.6076514,50.836247 36.3107465,51.0810618 C35.9796905,51.3540362 35.5065162,51.4961555 34.9509471,51.4961555 L34.9509471,51.4961555 L30.2884896,51.4961555 C29.7722936,51.4961555 29.3160317,51.3258024 28.9914112,51.0296862 C28.6839334,50.7492075 28.5,50.3564841 28.5,49.908614 L28.5,49.908614 L28.5,37.8562332 C28.5,37.3180454 28.7457318,36.8193952 29.1704663,36.4855685 L29.1704663,36.4855685 L38.9003035,28.8805674 C39.2233868,28.6269242 39.611671,28.5 40,28.5 Z" id="dashboard-icon"></path>
            </g>
        </g>
    </g>
</svg>