<?xml version="1.0" encoding="UTF-8"?>
<svg width="296px" height="75px" viewBox="0 0 296 75" version="1.1" xmlns="http://www.w3.org/2000/svg" xmlns:xlink="http://www.w3.org/1999/xlink">
    <title>Schemata-Horizontal-Light</title>
    <defs>
        <linearGradient x1="94.1514989%" y1="46.1566768%" x2="-16.4480728%" y2="55.781152%" id="linearGradient-1">
            <stop stop-color="#F7AC1F" offset="0%"></stop>
            <stop stop-color="#F8640F" offset="100%"></stop>
        </linearGradient>
        <linearGradient x1="-23.9694861%" y1="36.0483018%" x2="72.0556745%" y2="54.1599765%" id="linearGradient-2">
            <stop stop-color="#49DBEA" offset="0%"></stop>
            <stop stop-color="#3FAEBF" offset="100%"></stop>
        </linearGradient>
        <linearGradient x1="-3.29229122%" y1="39.9392994%" x2="92.7328694%" y2="58.0677534%" id="linearGradient-3">
            <stop stop-color="#49DBEA" offset="0%"></stop>
            <stop stop-color="#3FAEBF" offset="100%"></stop>
        </linearGradient>
        <linearGradient x1="286.672019%" y1="-11.7676465%" x2="-45.0822963%" y2="74.809386%" id="linearGradient-4">
            <stop stop-color="#F7AC1F" offset="0%"></stop>
            <stop stop-color="#F8640F" offset="100%"></stop>
        </linearGradient>
        <linearGradient x1="-184.704938%" y1="-82.7949224%" x2="103.331995%" y2="80.1865922%" id="linearGradient-5">
            <stop stop-color="#49DBEA" offset="0%"></stop>
            <stop stop-color="#3FAEBF" offset="100%"></stop>
        </linearGradient>
    </defs>
    <g id="Wireframes" stroke="none" stroke-width="1" fill="none" fill-rule="evenodd">
        <g id="Login" transform="translate(-246.000000, -171.000000)" fill-rule="nonzero">
            <g id="Schemata-Horizontal-Light" transform="translate(246.000000, 171.000000)">
                <rect id="Rectangle" fill="#FFFFFF" x="0.0629032258" y="0.0677419355" width="74.8645161" height="74.8645161" rx="37.4322581"></rect>
                <polygon id="Path" fill="url(#linearGradient-1)" points="49.5435484 24.4790323 19.4177419 24.4790323 25.4419355 18.4548387 55.5725806 18.4548387"></polygon>
                <polygon id="Path" fill="url(#linearGradient-2)" points="49.5435484 56.5451613 19.4177419 56.5451613 25.4419355 50.5209677 55.5725806 50.5209677"></polygon>
                <polygon id="Path" fill="url(#linearGradient-3)" points="55.5725806 40.5145161 25.4419355 40.5145161 19.4177419 34.4854839 49.5435484 34.4854839"></polygon>
                <rect id="Rectangle" fill="url(#linearGradient-4)" x="19.4129032" y="26.4725806" width="12.0532258" height="6.02419355"></rect>
                <rect id="Rectangle" fill="url(#linearGradient-5)" x="43.5193548" y="42.5032258" width="12.0532258" height="6.02419355"></rect>
                <g id="Group-2" transform="translate(89.252145, 27.000000)" fill="#FFFFFF">
                    <path d="M132.827042,0.604656212 C131.101696,0.604656212 129.376351,0.637835936 127.656535,0.604656212 C127.213436,0.537809077 126.792935,0.821347012 126.688793,1.25719077 C124.543171,6.58437971 122.384646,11.8968221 120.213217,17.194518 C120.119208,17.426776 119.992019,17.6369143 119.88142,17.8581124 C119.748869,17.6535858 119.628833,17.441215 119.521973,17.2221677 C117.309991,11.8876055 115.12013,6.5419834 112.952388,1.18530137 C112.862378,0.807450532 112.502914,0.557492606 112.117365,0.604656212 C110.392019,0.641522572 108.666673,0.641522572 106.941328,0.604656212 C106.427042,0.604656212 106.294323,0.74290506 106.299689,1.25166082 C106.299689,5.15027833 106.299689,9.0544258 106.299689,12.9530433 C106.299689,16.1770064 106.299689,19.4009696 106.299689,22.6304627 C106.299689,23.1502783 106.443632,23.2885272 106.946858,23.2664074 C107.82059,23.2221677 108.694323,23.2664074 109.562526,23.2664074 C109.938563,23.2664074 110.115521,23.1668682 110.065752,22.7797714 C110.057461,22.6250437 110.057461,22.469983 110.065752,22.3152553 C110.065752,16.5198636 110.065752,10.7263152 110.065752,4.93461013 C110.076611,4.77106077 110.098784,4.60845981 110.132111,4.44797418 C110.236083,4.57087132 110.326901,4.70431783 110.403079,4.84613087 C111.000314,6.25073916 111.586489,7.65534746 112.178194,9.06548571 C114.102618,13.6369143 116.025199,18.2101862 117.945936,22.7853014 C118.027568,23.1082362 118.341044,23.3164224 118.67036,23.2664074 C119.427964,23.2387576 120.185567,23.2276977 120.937641,23.2664074 C121.344314,23.3303919 121.732718,23.0738534 121.833494,22.6747023 C124.255613,16.8387576 126.690636,11.0138728 129.138563,5.20004792 C129.219929,5.03370982 129.3123,4.87298438 129.41506,4.71894193 C129.461024,4.90048657 129.492459,5.08540265 129.50907,5.27193732 C129.50907,7.66825068 129.50907,10.064564 129.50907,12.4608774 C129.50907,15.8396793 129.50907,19.2240111 129.50907,22.6028129 C129.50907,23.1170986 129.652848,23.2664074 130.161604,23.2442875 C131.051927,23.2055779 131.942249,23.2055779 132.832572,23.2442875 C133.313678,23.2442875 133.457457,23.1226286 133.457457,22.6359926 C133.457457,19.0636424 133.457457,15.4912922 133.457457,11.9189419 C133.457457,8.3465917 133.457457,4.77424147 133.457457,1.20189124 C133.451927,0.753964968 133.308148,0.604656212 132.827042,0.604656212 Z" id="Path"></path>
                    <path d="M20.3256595,11.4488958 C19.3876042,10.8982605 18.3504091,10.537497 17.2731249,10.3871447 C14.7957056,10.0608774 12.2961664,9.77884976 9.84086688,9.44705253 C8.82536633,9.31610314 7.81750585,9.13151331 6.82151204,8.89405713 C5.9308966,8.73349967 5.25420133,8.00266877 5.16252586,7.10235206 C4.91843969,6.05121879 5.36109449,4.96007472 6.26851665,4.37608478 C6.67631427,4.11491855 7.11956442,3.91377983 7.58464568,3.77884976 C9.93811368,3.13800369 12.4201178,3.13800369 14.7735858,3.77884976 C16.548701,4.23783594 17.7265812,5.26640736 17.9256595,7.17977142 C17.9256595,7.45626912 18.0694383,7.53921842 18.3238162,7.53368847 C19.4685166,7.53368847 20.6132171,7.53368847 21.7579176,7.53368847 C22.0731249,7.53368847 22.1560743,7.40096958 22.1339544,7.11341197 C21.9791157,5.01755944 21.2049222,3.24244423 19.3689775,2.070094 C18.6995599,1.64506984 17.985631,1.29459569 17.2399452,1.02493271 C14.7092739,0.175491398 12.0273053,-0.127949887 9.3708208,0.134610129 C7.68289616,0.215690788 6.02413896,0.605545588 4.47681158,1.28484054 C1.63441527,2.60649953 0.406765496,4.94014008 0.882341533,8.03138432 C1.05182936,9.68772005 2.11225995,11.1193013 3.64731849,11.7641032 C4.60223104,12.1876708 5.60492073,12.4940482 6.63349361,12.6765456 C8.8067655,13.0304627 11.0076872,13.229541 13.1975489,13.5447484 C14.3035397,13.705117 15.4537701,13.8986654 16.5597609,14.1585733 C17.2373283,14.2907626 17.8254474,14.7076827 18.1745074,15.3032737 C18.9686967,16.6752967 18.5594925,18.4283372 17.2399452,19.3069604 C16.7295108,19.6491765 16.1701659,19.9120686 15.580959,20.0866839 C13.1051906,20.7854311 10.4898562,20.8254617 7.99386227,20.2028129 C6.16897748,19.7659465 4.74777932,18.8313843 4.34409268,16.835071 C4.28879315,16.5530433 4.25561342,16.2820756 4.22796365,15.9723981 C4.20031388,15.6627207 4.0786549,15.6184811 3.81321711,15.6184811 C2.66851665,15.6184811 1.52934614,15.6184811 0.38464568,15.6184811 C0.0749682607,15.6184811 -0.0190409559,15.7401401 0.00307885973,16.0387576 C0.180037385,19.107882 1.46851665,21.4249327 4.42704199,22.6747023 C6.69727665,23.5352927 9.11112241,23.9538678 11.5385627,23.907882 C12.4454752,23.8581124 13.3579176,23.8359926 14.26483,23.7475134 C16.1915287,23.6249625 18.0730839,23.1112979 19.7947839,22.2378359 C21.4524706,21.4428201 22.592113,19.8594048 22.8196687,18.035071 C22.9293835,17.0006564 22.9089475,15.956566 22.7588392,14.9272369 C22.5740554,13.4363122 21.6628419,12.1336911 20.3256595,11.4488958 Z" id="Path"></path>
                    <path d="M101.931189,20.6396793 C101.931189,19.8820756 101.931189,19.8820756 101.184646,19.8820756 C96.2076872,19.8820756 91.2583784,19.8820756 86.2980097,19.8820756 C85.8113738,19.8820756 85.6731249,19.7382968 85.6786549,19.2627207 C85.7063047,17.4101862 85.7063047,15.5521217 85.6786549,13.6995871 C85.6786549,13.2129511 85.8224337,13.0802322 86.3035397,13.0857622 C88.8417885,13.0857622 91.3800374,13.0857622 93.9182862,13.0857622 C96.1302678,13.0857622 98.2980097,13.0857622 100.487871,13.0857622 C100.908148,13.0857622 101.085107,12.9806931 101.040867,12.5327668 C101.013217,11.8581124 101.040867,11.1834581 101.040867,10.5032737 C101.040867,9.82308939 101.040867,9.77884976 100.316443,9.77884976 C95.6436319,9.77884976 90.9763507,9.77884976 86.3035397,9.77884976 C85.7781941,9.77884976 85.6510051,9.62401105 85.662065,9.1263152 C85.6952448,7.67746727 85.662065,6.22861935 85.662065,4.77977142 C85.662065,3.86732902 85.6288853,3.99451796 86.4307286,3.98898801 C91.2583784,3.98898801 96.0860282,3.98898801 100.913678,3.98898801 C101.350544,3.98898801 101.538563,3.88944884 101.510913,3.43599262 C101.469021,2.69926045 101.469021,1.96074321 101.510913,1.22401105 C101.549623,0.671015659 101.350544,0.588066351 100.852848,0.588066351 C94.6851065,0.588066351 88.5210512,0.588066351 82.3606825,0.588066351 C81.8851065,0.588066351 81.7357978,0.704195383 81.7411805,1.19636128 C81.7411805,4.76871151 81.7411805,8.34106174 81.7411805,11.913412 L81.7411805,22.6138728 C81.7411805,23.2719373 81.7411805,23.2774673 82.3938623,23.2774673 L98.8510051,23.2774673 C99.702618,23.2774673 100.559761,23.2774673 101.411374,23.2774673 C101.798471,23.2774673 101.9146,23.1502783 101.90354,22.7742415 C101.9146,22.0664074 101.936719,21.3530433 101.931189,20.6396793 Z" id="Path"></path>
                    <path d="M49.5569959,14.5733198 C48.3957056,14.5733198 47.2288853,14.5733198 46.067595,14.5733198 C45.702618,14.5733198 45.5588392,14.672859 45.5145996,15.0488958 C45.2546918,17.4654857 43.8998531,19.0415226 41.6436319,19.8820756 C40.0504867,20.4539146 38.339852,20.619276 36.6666733,20.3631816 C33.4593001,19.9318452 31.2141388,18.267329 30.1855673,15.153965 C29.7543213,13.6625351 29.6338622,12.0984486 29.8316503,10.5585733 C30.0345786,7.36576284 32.2464927,4.6558902 35.3339544,3.81755944 C36.9106519,3.38083445 38.5675509,3.31834569 40.1726641,3.63507096 C42.9818807,4.15488663 45.0058438,5.55396497 45.5422494,8.5622599 C45.5422494,8.67838893 45.7910973,8.83322764 45.9238162,8.83875759 C46.543171,8.83875759 47.1680558,8.83875759 47.7874107,8.83875759 L49.3579176,8.83875759 C50.0712816,8.83875759 50.0768116,8.83875759 49.9717425,8.13092349 C49.5749253,5.12313705 47.5820141,2.5653561 44.7625259,1.44520921 C40.727085,-0.420117492 36.0890271,-0.482440767 32.0049222,1.27378064 C28.9674619,2.47269074 26.6999375,5.0700369 25.9219729,8.24152257 C25.3988281,10.1883094 25.2951581,12.2240122 25.6178254,14.2138728 C26.1708208,17.9908313 28.1339544,20.8055779 31.6122954,22.5088037 C34.0323568,23.6205099 36.7027569,24.0744779 39.3542309,23.8249327 C41.6710389,23.7472275 43.9299555,23.0811611 45.9182862,21.8894488 C48.3333933,20.4655645 49.874134,17.9260417 50.021512,15.1263152 C50.0878715,14.7115687 49.9772724,14.5622599 49.5569959,14.5733198 Z" id="Path"></path>
                    <path d="M76.66483,12.0129511 C76.66483,8.45903409 76.66483,4.90511704 76.66483,1.35119999 C76.66483,0.637835936 76.66483,0.637835936 75.9901756,0.637835936 C75.0943231,0.637835936 74.2040005,0.637835936 73.3136779,0.637835936 C72.8381019,0.637835936 72.7275028,0.792674646 72.7330328,1.23507096 C72.7330328,3.90050875 72.7330328,6.56594653 72.7330328,9.23138432 C72.7330328,9.93368847 72.7330328,9.93368847 72.0528484,9.93368847 L58.5874107,9.93368847 C57.9016964,9.93368847 57.9016964,9.93368847 57.9016964,9.23138432 C57.9016964,6.56594653 57.9016964,3.90050875 57.9016964,1.23507096 C57.9016964,0.792674646 57.7966272,0.621246074 57.3210512,0.637835936 C56.4307286,0.671015659 55.540406,0.637835936 54.6500835,0.637835936 C53.992019,0.637835936 53.986489,0.637835936 53.986489,1.31249031 L53.986489,15.7954396 C53.986489,18.1180203 53.986489,20.435071 53.986489,22.7521217 C53.986489,23.1502783 54.0970881,23.305117 54.5394844,23.305117 C55.4685166,23.305117 56.3975489,23.2719373 57.3044613,23.305117 C57.8076872,23.305117 57.9182862,23.1447484 57.9127563,22.6747023 C57.9127563,19.7991263 57.9127563,16.9180203 57.9127563,14.0424442 C57.9127563,13.3899097 57.9127563,13.3899097 58.5874107,13.3899097 L72.0804982,13.3899097 C72.7662125,13.3899097 72.7662125,13.3899097 72.7662125,14.0811539 C72.7662125,16.9622599 72.7662125,19.8378359 72.7662125,22.7189419 C72.7662125,23.1779281 72.8989314,23.3161769 73.3579176,23.2995871 C74.26483,23.2719373 75.1772724,23.2664074 76.0897148,23.2995871 C76.5652908,23.2995871 76.7145996,23.1723981 76.7092168,22.6857622 C76.6593001,19.1189419 76.66483,15.5631816 76.66483,12.0129511 Z" id="Path"></path>
                    <path d="M205.462987,22.7576516 C201.971742,15.5244719 198.487871,8.28944884 195.011374,1.05258248 C194.900856,0.76313544 194.604753,0.588687147 194.29801,0.632305982 C193.136719,0.632305982 191.969899,0.632305982 190.808609,0.632305982 C190.437207,0.591420335 190.09082,0.82546536 189.990176,1.18530137 C188.596627,4.11617695 187.180959,7.03046266 185.776351,9.95027833 C183.719208,14.1972829 181.665752,18.4553475 179.615982,22.7244719 C179.350544,23.2774673 179.356074,23.2774673 179.953309,23.2774673 C180.976351,23.2774673 182.004922,23.2774673 183.033494,23.2774673 C183.363625,23.3217653 183.677268,23.1204718 183.774507,22.8018912 C184.415982,21.3972829 185.090636,20.0092645 185.726581,18.5991263 C185.826439,18.3040011 186.119575,18.1193486 186.428885,18.1567299 C190.462065,18.1567299 194.491558,18.1567299 198.517365,18.1567299 C198.827359,18.1268862 199.115829,18.3184301 199.208609,18.6157161 C199.700775,19.7217069 200.3146,20.7558083 200.701696,21.8783889 C201.088793,23.0009696 201.708148,23.5373751 202.913678,23.2774673 C203.097591,23.2599055 203.28276,23.2599055 203.466673,23.2774673 L205.131189,23.2774673 C205.684185,23.2774673 205.684185,23.2774673 205.462987,22.7576516 Z M196.836259,14.8332276 L188.170821,14.8332276 C187.551466,14.8332276 187.534876,14.8332276 187.783724,14.2802322 C189.258378,11.1392184 190.733033,8.00557787 192.207687,4.87931059 C192.284163,4.75029963 192.369144,4.62652359 192.462065,4.50880368 C192.558432,4.62323112 192.645353,4.74529077 192.721973,4.87378064 C194.196627,8.03691428 195.671282,11.1982046 197.145936,14.3576516 C197.389254,14.8000479 197.389254,14.8332276 196.836259,14.8332276 Z" id="Shape"></path>
                    <path d="M159.138563,15.7843797 C156.793862,10.9143336 154.449162,6.03875759 152.104461,1.1576516 C151.99256,0.778118697 151.615752,0.541132611 151.225199,0.604656212 C150.672203,0.64336589 150.119208,0.604656212 149.599392,0.604656212 C149.079577,0.604656212 148.432572,0.604656212 147.851927,0.604656212 C147.477377,0.555930546 147.124789,0.792566942 147.027964,1.1576516 C145.540406,4.27654561 144.030729,7.38437971 142.532111,10.4977438 C140.570821,14.5530433 138.60953,18.6249327 136.64824,22.713412 C136.388332,23.2664074 136.393862,23.2664074 137.007687,23.2664074 C138.036259,23.2664074 139.06483,23.2664074 140.093401,23.2664074 C140.402712,23.3037887 140.695848,23.1191362 140.795706,22.8240111 C141.43165,21.4138728 142.111835,20.0258544 142.747779,18.6212461 C142.852409,18.3083405 143.160743,18.1104549 143.488793,18.14567 C147.50354,18.14567 151.516443,18.14567 155.527503,18.14567 C155.857915,18.1112506 156.165478,18.3186227 156.257457,18.6378359 C156.876812,20.0092645 157.540406,21.3585733 158.165291,22.7300018 C158.263924,23.0912834 158.611731,23.3262886 158.983724,23.2829972 C160.012295,23.2442875 161.040867,23.2829972 162.063908,23.2829972 C162.755153,23.2829972 162.755153,23.2829972 162.467595,22.6747023 L159.138563,15.7843797 Z M153.807687,14.8332276 L145.147779,14.8332276 C144.594784,14.8332276 144.594784,14.8332276 144.810452,14.2802322 C146.285107,11.1502783 147.759761,8.01663778 149.234415,4.87931059 C149.314962,4.73410064 149.409414,4.59705242 149.516443,4.470094 C149.626778,4.59172706 149.723225,4.72526892 149.804001,4.86825068 C151.278655,7.99451796 152.753309,11.1281585 154.227964,14.2691723 C154.438102,14.8276977 154.438102,14.8332276 153.807687,14.8332276 Z" id="Shape"></path>
                    <path d="M182.491558,3.5576516 C182.458378,2.80557787 182.491558,2.05350414 182.491558,1.30143041 C182.491558,0.637835936 182.491558,0.637835936 181.816904,0.637835936 L170.989254,0.637835936 C167.389254,0.637835936 163.800314,0.637835936 160.178194,0.637835936 C159.686028,0.637835936 159.542249,0.787144692 159.564369,1.25719077 C159.603074,2.01061106 159.603074,2.76552164 159.564369,3.51894193 C159.564369,4.00004792 159.702618,4.13276681 160.183724,4.12723686 C162.915521,4.12723686 165.652848,4.12723686 168.384646,4.12723686 C169.04824,4.12723686 169.04824,4.12723686 169.04824,4.78530137 L169.04824,17.8802322 C169.04824,19.5005087 169.04824,21.1263152 169.04824,22.7465917 C169.04824,23.1834581 169.180959,23.2995871 169.601236,23.2995871 C170.491558,23.2719373 171.381881,23.2995871 172.277733,23.2995871 C172.974507,23.2995871 172.974507,23.2995871 172.974507,22.6083428 L172.974507,4.85719077 C172.974507,4.110647 172.974507,4.110647 173.726581,4.110647 C176.491558,4.110647 179.195706,4.110647 181.927503,4.110647 C182.358839,4.11617695 182.508148,3.99451796 182.491558,3.5576516 Z" id="Path"></path>
                </g>
            </g>
        </g>
    </g>
</svg>