<?xml version="1.0" encoding="UTF-8"?>
<svg width="31px" height="31px" viewBox="0 0 31 31" version="1.1" xmlns="http://www.w3.org/2000/svg" xmlns:xlink="http://www.w3.org/1999/xlink">
    <title>Arrow</title>
    <g id="Wireframes" stroke="none" stroke-width="1" fill="none" fill-rule="evenodd">
        <g id="Schema-Editor-Default" transform="translate(-119.000000, -123.000000)">
            <g id="BODY" transform="translate(119.000000, 116.000000)">
                <g id="Top-Buttons" transform="translate(1.000000, 0.000000)">
                    <g id="Arrow" transform="translate(14.500000, 22.500000) scale(-1, 1) translate(-14.500000, -22.500000) translate(0.000000, 8.000000)">
                        <path d="M20.0921717,13.9744634 L15.1628788,9.04517045 C14.8234848,8.70577652 14.2739899,8.70577652 13.9507576,9.04517045 C13.6113636,9.38456439 13.6113636,9.93405934 13.9507576,10.2572917 L17.4255051,13.7320391 L9.55656566,13.7320391 C9.08787879,13.7320391 8.7,14.1199179 8.7,14.5886048 C8.7,15.0572917 9.08787879,15.4451705 9.55656566,15.4451705 L17.4093434,15.4451705 L13.9507576,18.9199179 C13.6113636,19.2593119 13.6113636,19.8088068 13.9507576,20.1320391 C14.1123737,20.2936553 14.3386364,20.390625 14.564899,20.390625 C14.7911616,20.390625 15.0012626,20.3098169 15.1790404,20.1320391 L20.1244949,15.1865846 C20.2861111,15.0249684 20.3830808,14.7987058 20.3830808,14.5724432 C20.3507576,14.3623422 20.2537879,14.1360795 20.0921717,13.9744634 Z" id="Path" fill="#3FAEBF" fill-rule="nonzero"></path>
                        <circle id="Oval" stroke="#3FAEBF" stroke-width="2" cx="14.5" cy="14.5" r="14.5"></circle>
                    </g>
                </g>
            </g>
        </g>
    </g>
</svg>