<?xml version="1.0" encoding="UTF-8"?>
<svg width="24px" height="24px" viewBox="0 0 24 24" version="1.1" xmlns="http://www.w3.org/2000/svg" xmlns:xlink="http://www.w3.org/1999/xlink">
    <title>dashboard-icon</title>
    <g id="Wireframes" stroke="none" stroke-width="1" fill="none" fill-rule="evenodd">
        <g id="Dashboard---Expanded-Nav---Tier-2" transform="translate(-28.000000, -276.000000)" fill-rule="nonzero" stroke="#FFFFFF">
            <g id="Dashboard" transform="translate(0.000000, 248.000000)">
                <path d="M40,28.7426622 C40.1042944,28.7426622 40.2085888,28.7752083 40.2968246,28.8403003 L40.2968246,28.8403003 L51.2968246,36.9550611 C51.4245922,37.049316 51.5,37.1986511 51.5,37.3574399 L51.5,37.3574399 L51.5004585,51.0002293 C51.5003952,51.1382745 51.4443973,51.2632352 51.3538804,51.3536276 C51.2634507,51.4439329 51.1385636,51.4997195 51.0002294,51.4995414 L51.0002294,51.4995414 L44.6415457,51.4966254 C44.5033414,51.4964472 44.3782464,51.4403159 44.287668,51.349696 C44.1970896,51.2590761 44.1410158,51.1339553 44.1409011,50.9961663 L44.1409011,50.9961663 L44.1409011,43.0324837 C44.1409011,42.6182701 43.9730079,42.2432701 43.7015613,41.9718235 C43.4301147,41.7003769 43.0551147,41.5324837 42.6409011,41.5324837 L42.6409011,41.5324837 L37.3590989,41.5324837 C36.9448853,41.5324837 36.5698853,41.7003769 36.2984387,41.9718235 C36.0269921,42.2432701 35.8590989,42.6182701 35.8590989,43.0324837 L35.8590989,43.0324837 L35.8590989,51 C35.8590989,51.1380712 35.8031345,51.2630712 35.7126523,51.3535534 C35.6221701,51.4440356 35.4971701,51.5 35.3590989,51.5 L35.3590989,51.5 L29,51.5 C28.8619288,51.5 28.7369288,51.4440356 28.6464466,51.3535534 C28.5559644,51.2630712 28.5,51.1380712 28.5,51 L28.5,51 L28.5,37.3574231 L39.7031754,28.8403003 C39.7914112,28.7752083 39.8957056,28.7426622 40,28.7426622 Z" id="dashboard-icon"></path>
            </g>
        </g>
    </g>
</svg>