<?xml version="1.0" encoding="UTF-8"?>
<svg width="52px" height="52px" viewBox="0 0 52 52" version="1.1" xmlns="http://www.w3.org/2000/svg" xmlns:xlink="http://www.w3.org/1999/xlink">
    <title>Avatar</title>
    <defs>
        <circle id="path-1" cx="20" cy="20" r="20"></circle>
        <filter x="-22.5%" y="-20.0%" width="145.0%" height="145.0%" filterUnits="objectBoundingBox" id="filter-2">
            <feMorphology radius="1" operator="dilate" in="SourceAlpha" result="shadowSpreadOuter1"></feMorphology>
            <feOffset dx="0" dy="1" in="shadowSpreadOuter1" result="shadowOffsetOuter1"></feOffset>
            <feGaussianBlur stdDeviation="2.5" in="shadowOffsetOuter1" result="shadowBlurOuter1"></feGaussianBlur>
            <feComposite in="shadowBlurOuter1" in2="SourceAlpha" operator="out" result="shadowBlurOuter1"></feComposite>
            <feColorMatrix values="0 0 0 0 0   0 0 0 0 0   0 0 0 0 0  0 0 0 0.1 0" type="matrix" in="shadowBlurOuter1"></feColorMatrix>
        </filter>
    </defs>
    <g id="Symbols" stroke="none" stroke-width="1" fill="none" fill-rule="evenodd">
        <g id="SIDE-NAV---DASHBOARD" transform="translate(-14.000000, -95.000000)">
            <g id="User-Info" transform="translate(0.000000, 80.000000)">
                <g id="Avatar" transform="translate(20.000000, 20.000000)">
                    <g id="Oval">
                        <use fill="black" fill-opacity="1" filter="url(#filter-2)" xlink:href="#path-1"></use>
                        <circle stroke="#FFFFFF" stroke-width="1" fill="#FFFFFF" fill-rule="evenodd" cx="20" cy="20" r="20.5"></circle>
                    </g>
                    <path d="M20.1666665,8 C23.1612771,8 25.5888886,10.4276115 25.5888886,13.4222221 C25.5888886,15.5371331 24.3780601,17.3692399 22.6118101,18.2631354 C27.0456662,19.2427882 30.333333,22.829106 30.333333,27.1031859 C30.333333,32.1322709 10,32.1322709 10,27.1031859 C10,22.8291996 13.2875228,19.2429453 17.7212085,18.2623719 C15.9552729,17.3692399 14.7444444,15.5371331 14.7444444,13.4222221 C14.7444444,10.4276115 17.1720559,8 20.1666665,8 Z" id="Combined-Shape" fill="#C8CED1"></path>
                </g>
            </g>
        </g>
    </g>
</svg>