<?xml version="1.0" encoding="UTF-8"?>
<svg width="26px" height="26px" viewBox="0 0 26 26" version="1.1" xmlns="http://www.w3.org/2000/svg" xmlns:xlink="http://www.w3.org/1999/xlink">
    <title>help-icon</title>
    <g id="Wireframes" stroke="none" stroke-width="1" fill="none" fill-rule="evenodd">
        <g id="Dashboard" transform="translate(-27.000000, -347.000000)" fill-rule="nonzero" stroke="#FFFFFF">
            <g id="Help" transform="translate(0.000000, 320.000000)">
                <path d="M38.7384798,28.0901867 C33.3376221,28.7365627 29.1949187,32.6148183 28.2129445,37.7242662 C26.9854769,44.2188053 31.1895536,50.5594454 37.6030722,51.8829771 C37.9406258,51.9445367 41.408222,52.2831146 44.0165908,51.42128 C48.4354744,49.6976108 51.1359033,46.5272908 51.9337573,41.7872006 C51.964444,41.6948612 52.363371,37.8166056 50.767663,34.6770653 C48.6502813,30.3371126 43.9859041,27.4438108 38.7384798,28.0901867 Z M39.812514,47.3891254 C38.8305399,47.3891254 38.0940593,46.65041 38.0940593,45.696236 C38.0940593,44.6497226 38.7998532,43.9110072 39.812514,43.9110072 C40.8251749,43.8802274 41.5923422,44.6497226 41.5923422,45.6654562 C41.5923422,46.65041 40.8558616,47.3891254 39.812514,47.3891254 Z M43.6176638,39.3555959 C43.1880501,39.7249536 42.7584365,40.0635314 42.2981361,40.3713295 C41.6230289,40.8330266 41.2241019,41.5409622 41.2241019,42.4643563 C40.3341878,42.4643563 39.3829004,42.4643563 38.4622996,42.4643563 C38.3395528,41.4794025 38.4009262,40.3713295 39.2908403,39.663394 C39.812514,39.2632565 40.3648745,38.9246786 40.7944882,38.4937613 C41.1934152,38.062844 41.5923422,37.5395873 41.7764623,37.0163306 C41.9912692,36.3391749 41.4695954,35.5388999 40.8865483,35.3234413 C40.0273209,35.0156432 38.9839734,35.2618816 38.6157331,35.9698172 C38.4009262,36.3699547 38.2781794,36.8624316 38.0940593,37.3549085 C37.2348319,37.3549085 36.3756046,37.3549085 35.5163772,37.3549085 C35.240197,35.9698172 36.0073643,34.2769278 37.2962053,33.4458731 C39.0760334,32.3378 42.1140159,32.5840385 43.6790372,33.9999096 C45.2440585,35.3850009 45.2133718,37.9705046 43.6176638,39.3555959 Z" id="help-icon"></path>
            </g>
        </g>
    </g>
</svg>