<?xml version="1.0" encoding="UTF-8"?>
<svg width="16px" height="14px" viewBox="0 0 16 14" version="1.1" xmlns="http://www.w3.org/2000/svg" xmlns:xlink="http://www.w3.org/1999/xlink">
    <title>Shape</title>
    <g id="Wireframes" stroke="none" stroke-width="1" fill="none" fill-rule="evenodd">
        <g id="Schema-Editor-Active-Schema---Warning-1" transform="translate(-136.000000, -354.000000)" fill="#D64B33" fill-rule="nonzero">
            <g id="BODY" transform="translate(119.000000, 180.000000)">
                <g id="Warning-Indicator" transform="translate(1.000000, 160.000000)">
                    <path d="M18.3118012,28 L29.0992408,28 C30.8746031,28 31.9905451,26.0555556 31.1113181,24.5338164 L25.70069,15.1666667 C24.821463,13.6111111 22.5895789,13.6111111 21.7103519,15.1666667 L16.2997239,24.5338164 C15.437405,26.0724638 16.5364388,28 18.3118012,28 Z M23.7224292,25.9202899 C23.2489992,25.9202899 22.8601103,25.531401 22.8601103,25.057971 C22.8601103,24.5845411 23.2489992,24.1956522 23.7224292,24.1956522 C24.1958591,24.1956522 24.584748,24.5845411 24.5678398,25.0748792 C24.584748,25.531401 24.1789509,25.9202899 23.7224292,25.9202899 Z M23.5026224,18.1425121 C23.9084195,18.0410628 24.3311248,18.2439614 24.5002069,18.6328502 C24.5509316,18.7681159 24.584748,18.9033816 24.584748,19.0555556 C24.5678398,19.4782609 24.5340234,19.9178744 24.5002069,20.3405797 C24.4663905,21 24.4156659,21.6763285 24.3818495,22.3357488 C24.3649412,22.5555556 24.3649412,22.7415459 24.3649412,22.9613527 C24.348033,23.3164251 24.0775016,23.5869565 23.7224292,23.5869565 C23.3673567,23.5869565 23.0968253,23.3333333 23.0799171,22.9782609 C23.0291925,21.9468599 22.9615596,20.9154589 22.910835,19.884058 C22.8939268,19.6135266 22.8770185,19.3429952 22.8601103,19.0555556 C22.8432021,18.6328502 23.0968253,18.2608696 23.5026224,18.1425121 Z" id="Shape"></path>
                </g>
            </g>
        </g>
    </g>
</svg>