<?xml version="1.0" encoding="UTF-8"?>
<svg width="16px" height="16px" viewBox="0 0 16 16" version="1.1" xmlns="http://www.w3.org/2000/svg" xmlns:xlink="http://www.w3.org/1999/xlink">
    <title>Close</title>
    <g id="Wireframes" stroke="none" stroke-width="1" fill="none" fill-rule="evenodd">
        <g id="Dashboard---Add-Domain" transform="translate(-1072.000000, -192.000000)" fill="#000000">
            <g id="ADD-DOMAIN" transform="translate(400.000000, 160.000000)">
                <path d="M687.681809,32.3181909 C688.106064,32.7424455 688.106064,33.4302982 687.681809,33.8545528 L681.534825,39.9984636 L687.681809,46.1454472 C688.106064,46.5697018 688.106064,47.2575545 687.681809,47.6818091 C687.257554,48.1060636 686.569702,48.1060636 686.145447,47.6818091 L679.998464,41.5348254 L673.854553,47.6818091 C673.430298,48.1060636 672.742446,48.1060636 672.318191,47.6818091 C671.893936,47.2575545 671.893936,46.5697018 672.318191,46.1454472 L678.463638,39.9969273 L672.318191,33.8545528 C671.893936,33.4302982 671.893936,32.7424455 672.318191,32.3181909 C672.742446,31.8939364 673.430298,31.8939364 673.854553,32.3181909 L680,38.4605655 L686.145447,32.3181909 C686.569702,31.8939364 687.257554,31.8939364 687.681809,32.3181909 Z" id="Close"></path>
            </g>
        </g>
    </g>
</svg>