<?xml version="1.0" encoding="UTF-8"?>
<svg width="24px" height="22px" viewBox="0 0 24 22" version="1.1" xmlns="http://www.w3.org/2000/svg" xmlns:xlink="http://www.w3.org/1999/xlink">
    <title>Group 5</title>
    <g id="Wireframes" stroke="none" stroke-width="1" fill="none" fill-rule="evenodd">
        <g id="Page-Index---Freemium-Selected" transform="translate(-1190.000000, -353.000000)" stroke="#C47335" stroke-width="1.5">
            <g id="RIGHT-SIDE-MENU" transform="translate(1151.500000, 80.000000)">
                <g id="Right-Menu-Option" transform="translate(40.500000, 224.000000)">
                    <g id="Group-5" transform="translate(0.000000, 50.000000)">
                        <path d="M0.545616987,19.9632727 C0.403435169,19.9632727 0.264162442,19.9076364 0.159798806,19.8036364 C0.0128897146,19.6567273 -0.0380193763,19.4389091 0.029253351,19.2421818 L2.28452608,12.628 C2.31143517,12.5490909 2.35616244,12.4770909 2.41507153,12.4181818 L14.1943443,0.638909091 C14.6063443,0.226909091 15.1539806,6.45947942e-14 15.7365261,6.45947942e-14 C16.3190715,6.45947942e-14 16.8667079,0.226909091 17.2787079,0.638909091 L19.3245261,2.68472727 C19.7365261,3.09636364 19.9630715,3.64436364 19.9630715,4.22654545 C19.9630715,4.80945455 19.7361624,5.35672727 19.3245261,5.76872727 L7.54525335,17.548 C7.48634426,17.6069091 7.4147079,17.6516364 7.33543517,17.6785455 L0.721253351,19.9338182 C0.663798806,19.9534545 0.604526078,19.9632727 0.545616987,19.9632727 Z" id="Path" fill-rule="nonzero"></path>
                        <line x1="2.38307153" y1="12.4175078" x2="7.54542422" y2="17.5477112" id="Path-2"></line>
                        <line x1="13.212111" y1="1.62023767" x2="18.3423143" y2="6.75044102" id="Path-7"></line>
                    </g>
                </g>
            </g>
        </g>
    </g>
</svg>