<?xml version="1.0" encoding="UTF-8"?>
<svg width="24px" height="22px" viewBox="0 0 24 22" version="1.1" xmlns="http://www.w3.org/2000/svg" xmlns:xlink="http://www.w3.org/1999/xlink">
    <title>Generate-Icon</title>
    <g id="Desktop" stroke="none" stroke-width="1" fill="none" fill-rule="evenodd" stroke-linecap="round">
        <g id="Page-Index---Multiple-Selected" transform="translate(-1190.000000, -353.000000)" stroke="#C47335" stroke-width="1.5">
            <g id="RIGHT-SIDE-MENU" transform="translate(1151.500000, 80.000000)">
                <g id="Right-Menu-Option" transform="translate(39.500000, 224.000000)">
                    <g id="Enabled" transform="translate(0.000000, 50.000000)">
                        <g id="Generate-Icon" transform="translate(1.000000, 0.000000)">
                            <path d="M3.96413834,2.0263301 C1.55565326,3.85233015 1.26787469e-13,6.74449393 1.26787469e-13,10 C1.26787469e-13,12.789836 1.14243933,15.3128411 2.98500926,17.1267064" id="Outline"></path>
                            <path d="M17.0395028,17.1024934 C18.8676873,15.2904219 20,12.7774438 20,10 C20,6.75389869 18.4533219,3.86904339 16.0567137,2.04218203" id="Outline-Copy"></path>
                            <path d="M6.4883735,20 C6.44225046,20 6.39612742,20 6.35000438,19.9761444 C6.21163527,19.9045777 6.11938919,19.7375886 6.14245071,19.5705996 L7.77981858,11.5551249 L4.89712867,11.5551249 C4.75875956,11.5551249 4.64345196,11.4835581 4.59732892,11.3642802 C4.52814436,11.2450023 4.55120588,11.1018689 4.62039044,10.982591 L12.3459994,0.152157886 C12.4382455,0.00902440903 12.6227376,-0.0386867499 12.7611067,0.0328799885 C12.8994758,0.104446727 12.9917219,0.271435783 12.9686604,0.438424839 L11.3312925,8.45389954 L14.2139824,8.45389954 C14.3523516,8.45389954 14.4676592,8.52546628 14.5137822,8.64474418 C14.5829667,8.76402207 14.5599052,8.90715555 14.4907207,9.02643345 L6.76511173,19.8568665 C6.69592717,19.9522888 6.60368109,20 6.4883735,20 Z" id="Path-Copy"></path>
                        </g>
                    </g>
                </g>
            </g>
        </g>
    </g>
</svg>