<?xml version="1.0" encoding="UTF-8"?>
<svg width="26px" height="26px" viewBox="0 0 26 26" version="1.1" xmlns="http://www.w3.org/2000/svg" xmlns:xlink="http://www.w3.org/1999/xlink">
    <title>Settings-Icon</title>
    <g id="Wireframes" stroke="none" stroke-width="1" fill="none" fill-rule="evenodd">
        <g id="Dashboard" transform="translate(-27.000000, -267.000000)" fill-rule="nonzero" stroke="#FFFFFF">
            <g id="Settings" transform="translate(0.000000, 240.000000)">
                <path d="M38.3210228,28 L37.4943182,30.9147727 C36.7365428,31.1235345 36.0150973,31.42078 35.346591,31.8011364 L32.6960228,30.3267045 L30.3267046,32.6960227 L31.8011364,35.3465909 C31.4207773,36.0150973 31.1235373,36.73654 30.9147728,37.4943127 L28,38.3210309 L28,41.6789882 L30.9147728,42.5056791 C31.1235373,43.2634518 31.4207773,43.9848973 31.8011364,44.6534064 L30.3267046,47.3039882 L32.6960228,49.6733064 L35.346591,48.1988609 C36.0150973,48.5792064 36.7365428,48.8764518 37.4943182,49.0852245 L38.3210228,52 L41.6789773,52 L42.5056819,49.0852245 C43.2634601,48.8764518 43.9849028,48.5792064 44.6534091,48.1988609 L47.3039773,49.6733064 L49.6732955,47.3039882 L48.1988637,44.6534064 C48.5792173,43.9848973 48.8764655,43.2634518 49.0852273,42.5056791 L52,41.6789882 L52,38.3210309 L49.0852273,37.4943127 C48.8764655,36.73654 48.5792173,36.0150973 48.1988637,35.3465909 L49.6732955,32.6960227 L47.3039773,30.3267045 L44.6534091,31.8011364 C43.9849028,31.42078 43.2634601,31.1235345 42.5056819,30.9147727 L41.6789773,28 L38.3210228,28 Z M40.0000001,34.9999986 C42.7533501,34.9999986 45.0000001,37.2466537 45.0000001,39.9999986 C45.0000001,42.753339 42.7533501,44.9999986 40.0000001,44.9999986 C37.2466501,44.9999986 35.0000001,42.753339 35.0000001,39.9999986 C35.0000001,37.2466537 37.2466501,34.9999986 40.0000001,34.9999986 Z" id="Settings-Icon"></path>
            </g>
        </g>
    </g>
</svg>