<?xml version="1.0" encoding="UTF-8"?>
<svg width="42px" height="42px" viewBox="0 0 42 42" version="1.1" xmlns="http://www.w3.org/2000/svg" xmlns:xlink="http://www.w3.org/1999/xlink">
    <title>Single-Color Logomark</title>
    <defs>
        <circle id="path-1" cx="20" cy="20" r="20"></circle>
    </defs>
    <g id="Wireframes" stroke="none" stroke-width="1" fill="none" fill-rule="evenodd">
        <g id="Group-5" transform="translate(-19.000000, -19.000000)">
            <g id="Single-Color-Logomark" transform="translate(20.000000, 20.000000)">
                <mask id="mask-2" fill="white">
                    <use xlink:href="#path-1"></use>
                </mask>
                <use id="Mask" stroke="#FFFFFF" stroke-width="2" xlink:href="#path-1"></use>
                <path d="M18,20 C12.4771525,20 8,15.5228475 8,10 C8,4.4771525 12.4771525,0 18,0" id="Oval" stroke="#FFFFFF" stroke-width="2" mask="url(#mask-2)"></path>
                <path d="M22.1515152,20 C16.6286677,20 12.1515152,15.5228475 12.1515152,10 C12.1515152,4.4771525 16.6286677,0 22.1515152,0" id="Oval-Copy-6" stroke="#FFFFFF" stroke-width="2" mask="url(#mask-2)"></path>
                <path d="M39,20 C33.4771525,20 29,15.5228475 29,10 C29,7.50822547 29.9113669,5.2293121 31.418952,3.4784087" id="Oval-Copy" stroke="#FFFFFF" stroke-width="2" mask="url(#mask-2)"></path>
                <path d="M18,40 C23.5228475,40 28,35.5228475 28,30 C28,24.4771525 23.5228475,20 18,20" id="Oval-Copy-2" stroke="#FFFFFF" stroke-width="2" mask="url(#mask-2)"></path>
                <path d="M22.1515152,40 C27.6743626,40 32.1515152,35.5228475 32.1515152,30 C32.1515152,24.4771525 27.6743626,20 22.1515152,20" id="Oval-Copy-7" stroke="#FFFFFF" stroke-width="2" mask="url(#mask-2)"></path>
                <path d="M-5.32907052e-15,40 C3.27058232,40 6.17444928,38.4299049 7.99896987,36.0023458 C9.25541406,34.330623 10,32.2522652 10,30 C10,24.4771525 5.5228475,20 -5.32907052e-15,20" id="Oval-Copy-4" stroke="#FFFFFF" stroke-width="2" mask="url(#mask-2)"></path>
            </g>
        </g>
    </g>
</svg>